<?xml version="1.0" encoding="UTF-8" standalone="no"?>
<!-- Created with Inkscape (http://www.inkscape.org/) -->

<svg
   width="206.27618mm"
   height="206.27618mm"
   viewBox="0 0 206.27618 206.27618"
   version="1.1"
   id="svg5"
   inkscape:version="1.1 (c68e22c387, 2021-05-23)"
   sodipodi:docname="classmates.com logo.svg"
   xmlns:inkscape="http://www.inkscape.org/namespaces/inkscape"
   xmlns:sodipodi="http://sodipodi.sourceforge.net/DTD/sodipodi-0.dtd"
   xmlns="http://www.w3.org/2000/svg"
   xmlns:svg="http://www.w3.org/2000/svg">
  <sodipodi:namedview
     id="namedview7"
     pagecolor="#ffffff"
     bordercolor="#666666"
     borderopacity="1.0"
     inkscape:pageshadow="2"
     inkscape:pageopacity="0.0"
     inkscape:pagecheckerboard="0"
     inkscape:document-units="mm"
     showgrid="false"
     fit-margin-top="0"
     fit-margin-left="0"
     fit-margin-right="0"
     fit-margin-bottom="0"
     inkscape:zoom="0.35355339"
     inkscape:cx="-567.09964"
     inkscape:cy="-2.8284271"
     inkscape:window-width="1920"
     inkscape:window-height="996"
     inkscape:window-x="-8"
     inkscape:window-y="-8"
     inkscape:window-maximized="1"
     inkscape:current-layer="layer2" />
  <defs
     id="defs2" />
  <g
     inkscape:groupmode="layer"
     id="layer2"
     inkscape:label="Ebene 2"
     style="display:inline"
     transform="translate(-2.5068717,-42.440112)">
    <g
       id="g22295"
       transform="matrix(4.3312586,0,0,4.3312586,-316.2762,-520.61313)">
      <rect
         style="fill:#ee6600;fill-opacity:1;stroke:none;stroke-width:0.0499999;-inkscape-stroke:none;stop-color:#000000"
         id="rect18451"
         width="47.625"
         height="47.625"
         x="73.600563"
         y="129.9976"
         ry="0" />
      <path
         style="fill:#1c7bb3;fill-opacity:1;stroke:none;stroke-width:0.264583px;stroke-linecap:butt;stroke-linejoin:miter;stroke-opacity:1"
         d="m 94.852804,144.59484 c -1.765552,0.0517 -5.573029,0.72234 -5.787763,3.80339 -0.0192,0.814 -0.03841,1.62801 -0.05761,2.44201 1.433964,-2.50275 3.008244,-4.77164 5.845373,-6.2454 z"
         id="path3071"
         sodipodi:nodetypes="cccc" />
      <path
         style="display:inline;fill:#1c7ab2;fill-opacity:1;stroke:none;stroke-width:0.264583px;stroke-linecap:butt;stroke-linejoin:miter;stroke-opacity:1"
         d="m 101.48691,144.60902 c 0,0 5.36368,0.57464 5.56188,3.93681 l 0.008,2.67352 c 0.48126,-0.94025 -5.56987,-6.61033 -5.56987,-6.61033 z"
         id="path3071-5"
         sodipodi:nodetypes="cccc" />
      <path
         style="fill:#ffffff;stroke:none;stroke-width:0.264583px;stroke-linecap:butt;stroke-linejoin:miter;stroke-opacity:1"
         d="m 91.446613,160.73437 c 0.374827,0.39136 -1.962326,2.93246 -2.546614,2.51354 -7.408333,-5.20347 -7.9375,10.09827 0,4.13412 0.598068,-0.3638 3.023416,1.91823 2.61276,2.38125 -3.318316,5.20347 -13.161779,3.16251 -13.328385,-3.93568 -0.166606,-7.09819 8.709201,-10.44002 13.262239,-5.09323 z"
         id="path15723"
         sodipodi:nodetypes="cccczc" />
      <path
         style="fill:#ffffff;stroke:none;stroke-width:0.264583px;stroke-linecap:butt;stroke-linejoin:miter;stroke-opacity:1"
         d="m 93.56328,158.3862 -0.03307,14.02291 4.092774,0.0661 0.107486,-8.99584 c 1.499304,-2.38125 4.2223,-1.88515 5.29166,-0.0331 l 0.0331,8.92969 h 4.06797 v -9.29349 c 1.45521,-1.71979 4.2664,-1.68672 5.35781,0 v 9.35964 h 4.33255 v -9.02891 c 0.0551,-5.52318 -7.99262,-7.04453 -11.04635,-3.37344 -2.0395,-2.28202 -6.559462,-3.14191 -9.29349,-0.0992 -0.253559,-0.52917 -0.507118,-1.05833 -0.760677,-1.5875 z"
         id="path15725"
         sodipodi:nodetypes="cccccccccccccccc" />
      <path
         style="fill:#009bd4;fill-opacity:1;stroke:none;stroke-width:0.264583px;stroke-linecap:butt;stroke-linejoin:miter;stroke-opacity:1"
         d="m 77.637483,143.64766 20.508015,-8.97226 19.958692,8.69759 -4.80657,2.47195 0.004,1.35077 c 0.45308,0.2571 0.36872,1.22113 0.007,1.317 l 0.0115,0.46795 0.25177,0.0916 0.51499,6.85508 -2.09429,-0.0687 0.44632,-6.83219 0.206,-0.0343 0.0458,-0.48066 c -0.37271,-0.1404 -0.5015,-1.13656 0.0229,-1.33897 l 0.016,-1.0691 -5.68082,2.44241 c 0.0312,-1.54378 -2.05427,-3.45136 -5.56188,-3.93681 2.80026,2.41581 5.89819,4.69933 6.3172,8.83493 -0.0304,0.77324 0.0715,1.54647 -1.28175,1.32752 -5.113,-1.09202 -9.862206,-1.95252 -15.438231,-0.20027 -0.907907,0.14262 -2.67571,0.61597 -2.723721,-1.25886 0.113611,-2.60818 2.740764,-6.77078 6.492396,-8.7175 -2.259983,0.24254 -5.578299,1.14653 -5.787761,3.80339 z"
         id="path870"
         sodipodi:nodetypes="cccccccccccccccccccccccc" />
    </g>
  </g>
</svg>
